<?xml version="1.0" standalone="no"?>
<!DOCTYPE svg PUBLIC "-//W3C//DTD SVG 20010904//EN"
 "http://www.w3.org/TR/2001/REC-SVG-20010904/DTD/svg10.dtd">
<svg version="1.0" xmlns="http://www.w3.org/2000/svg"
 width="260.000000pt" height="260.000000pt" viewBox="0 0 260.000000 260.000000"
 preserveAspectRatio="xMidYMid meet">
<metadata>
Created by potrace 1.14, written by Peter Selinger 2001-2017
</metadata>
<g transform="translate(0.000000,260.000000) scale(0.100000,-0.100000)"
fill="#000000" stroke="none">
<path d="M492 1659 c-57 -11 -139 -49 -179 -83 -33 -28 -83 -117 -83 -148 0
-16 10 -18 80 -18 77 0 80 1 94 28 45 86 98 102 335 102 l187 0 18 33 c10 17
28 47 38 65 l20 32 -234 -1 c-128 -1 -252 -5 -276 -10z"/>
<path d="M1102 1605 l3 -67 173 -105 172 -105 175 102 175 102 0 70 c0 38 -3
67 -7 65 -5 -3 -83 -50 -175 -105 l-167 -101 -165 99 c-90 54 -170 101 -176
105 -8 5 -10 -13 -8 -60z"/>
<path d="M1977 1552 l-117 -117 183 -183 182 -182 48 47 47 48 -132 132 -133
133 120 120 120 120 -100 0 -100 0 -118 -118z"/>
<path d="M2317 1622 l-47 -48 113 -112 113 -112 49 50 49 50 -109 110 c-60 61
-112 110 -115 110 -3 0 -27 -21 -53 -48z"/>
<path d="M2182 1487 c-23 -23 -42 -47 -42 -52 0 -5 57 -67 127 -137 l128 -128
-113 -113 c-61 -62 -112 -116 -112 -120 0 -4 42 -7 93 -7 l92 0 120 120 120
120 -180 180 c-99 99 -182 180 -185 180 -3 0 -25 -19 -48 -43z"/>
<path d="M1100 1211 l0 -211 53 -34 52 -34 5 143 5 143 117 -70 117 -70 121
70 120 71 0 -140 c0 -76 3 -139 6 -139 3 0 28 12 55 28 l49 27 0 213 c0 116
-2 212 -4 212 -3 0 -80 -45 -171 -100 -91 -55 -171 -100 -177 -100 -5 0 -83
43 -171 97 -89 53 -165 98 -169 100 -5 2 -8 -91 -8 -206z"/>
<path d="M6 1348 c4 -7 23 -37 41 -65 l34 -53 399 0 400 0 0 -75 0 -75 -160 0
c-179 0 -234 12 -285 61 -29 27 -36 29 -113 29 -62 0 -82 -3 -82 -13 0 -27 63
-107 108 -137 87 -58 120 -63 420 -68 l272 -4 0 206 0 206 -521 0 c-413 0
-519 -3 -513 -12z"/>
<path d="M1907 1202 l-47 -48 113 -112 113 -112 49 50 49 50 -109 110 c-60 61
-112 110 -115 110 -3 0 -27 -21 -53 -48z"/>
</g>
</svg>
